# xmcd
#
# Track frame offsets:
#	150
#	17702
#	33188
#	48895
#	66781
#	86391
#	104873
#	125145
#	143711
#	158984
#	181973
#
# Disc length: 2883 seconds
#
# Revision: 0
# Processed by: cddbd v1.5.1PL0 Copyright (c) Steve Scherf et al.
# Submitted via: dBpowerAMP V4.0
#
DISCID=920b410b
DTITLE=The Sidehill Gougers - Runaway Scrape
DYEAR=2003
DGENRE=Country
TTITLE0=Home
TTITLE1=Take A Look Around
TTITLE2=Steal Away
TTITLE3=Boulder to Birmingham
TTITLE4=Manheim Station
TTITLE5=Ill Made Illusions
TTITLE6=Careful What You Wish For
TTITLE7=Happy With Me
TTITLE8=Don't You Take It Too Bad
TTITLE9=Return of the Grevious Angel
TTITLE10=Rinding In A Lincoln Continental With Sylvia Plath
EXTD=Local Texas Band
EXTT0=
EXTT1=
EXTT2=
EXTT3=
EXTT4=
EXTT5=
EXTT6=
EXTT7=
EXTT8=
EXTT9=
EXTT10=
PLAYORDER=
